<?xml version="1.0" encoding="UTF-8" standalone="no"?>
<!-- Created with Inkscape (http://www.inkscape.org/) -->

<svg
   width="32"
   height="32"
   viewBox="0 0 8.4666666 8.4666666"
   version="1.1"
   id="svg8"
   inkscape:version="1.3.2 (1:1.3.2+202311252150+091e20ef0f)"
   sodipodi:docname="shortcut.svg"
   xmlns:inkscape="http://www.inkscape.org/namespaces/inkscape"
   xmlns:sodipodi="http://sodipodi.sourceforge.net/DTD/sodipodi-0.dtd"
   xmlns="http://www.w3.org/2000/svg"
   xmlns:svg="http://www.w3.org/2000/svg"
   xmlns:rdf="http://www.w3.org/1999/02/22-rdf-syntax-ns#"
   xmlns:cc="http://creativecommons.org/ns#"
   xmlns:dc="http://purl.org/dc/elements/1.1/">
  <defs
     id="defs2">
    <style
       id="style1399">.cls-1{fill:#e3e3e3;}</style>
    <style
       id="style1399-1">.cls-1{fill:#e3e3e3;}</style>
    <style
       id="style1399-5">.cls-1{fill:#e3e3e3;}</style>
    <style
       id="style1399-8">.cls-1{fill:#e3e3e3;}</style>
  </defs>
  <sodipodi:namedview
     id="base"
     pagecolor="#ffffff"
     bordercolor="#666666"
     borderopacity="1.0"
     inkscape:pageopacity="0.0"
     inkscape:pageshadow="2"
     inkscape:zoom="15.999999"
     inkscape:cx="15.218751"
     inkscape:cy="16.718751"
     inkscape:document-units="mm"
     inkscape:current-layer="svg8"
     showgrid="false"
     units="px"
     inkscape:window-width="1870"
     inkscape:window-height="1014"
     inkscape:window-x="0"
     inkscape:window-y="0"
     inkscape:window-maximized="1"
     inkscape:showpageshadow="0"
     inkscape:pagecheckerboard="1"
     inkscape:deskcolor="#d1d1d1" />
  <metadata
     id="metadata5">
    <rdf:RDF>
      <cc:Work
         rdf:about="">
        <dc:format>image/svg+xml</dc:format>
        <dc:type
           rdf:resource="http://purl.org/dc/dcmitype/StillImage" />
        <dc:title />
      </cc:Work>
    </rdf:RDF>
  </metadata>
  <path
     id="path1737"
     d="M 7.1429455,5.2862958 H 6.6143157 A 0.26431479,0.26431479 0 0 0 6.3500011,5.5506106 V 7.4008141 H 1.0637053 V 2.1145183 H 3.4425384 A 0.26431479,0.26431479 0 0 0 3.7068532,1.8502035 V 1.321574 A 0.26431479,0.26431479 0 0 0 3.4425384,1.0572592 H 0.79939052 a 0.79294437,0.79294437 0 0 0 -0.7929444,0.7929443 v 5.8149256 a 0.79294437,0.79294437 0 0 0 0.7929444,0.7929444 H 6.6143157 A 0.79294437,0.79294437 0 0 0 7.4072602,7.6651291 V 5.5506106 A 0.26431479,0.26431479 0 0 0 7.1429455,5.2862958 Z M 8.0680475,0 H 5.9535289 C 5.6005034,0 5.4240734,0.42802479 5.6726944,0.67730671 L 6.2629426,1.2675546 2.2366022,5.2924081 a 0.3964722,0.3964722 0 0 0 0,0.561669 l 0.374501,0.3738402 a 0.3964722,0.3964722 0 0 0 0.5616689,0 L 7.1971299,2.202403 7.7872129,2.791825 C 8.0350077,3.0396201 8.4645196,2.8661635 8.4645196,2.5109906 V 0.39647223 A 0.3964722,0.3964722 0 0 0 8.0680475,0 Z"
     inkscape:connector-curvature="0"
     style="stroke-width:0.01651968;fill:#e3e3e3;fill-opacity:1" />
</svg>
