<?xml version="1.0" encoding="UTF-8" standalone="no"?>
<!-- Created with Inkscape (http://www.inkscape.org/) -->

<svg
   width="32"
   height="32"
   viewBox="0 0 8.4666666 8.4666666"
   version="1.1"
   id="svg8"
   inkscape:version="1.2.1 (9c6d41e410, 2022-07-14)"
   sodipodi:docname="update-settings.svg"
   xmlns:inkscape="http://www.inkscape.org/namespaces/inkscape"
   xmlns:sodipodi="http://sodipodi.sourceforge.net/DTD/sodipodi-0.dtd"
   xmlns="http://www.w3.org/2000/svg"
   xmlns:svg="http://www.w3.org/2000/svg"
   xmlns:rdf="http://www.w3.org/1999/02/22-rdf-syntax-ns#"
   xmlns:cc="http://creativecommons.org/ns#"
   xmlns:dc="http://purl.org/dc/elements/1.1/">
  <defs
     id="defs2" />
  <sodipodi:namedview
     id="base"
     pagecolor="#ffffff"
     bordercolor="#666666"
     borderopacity="1.0"
     inkscape:pageopacity="0.0"
     inkscape:pageshadow="2"
     inkscape:zoom="8"
     inkscape:cx="23.125"
     inkscape:cy="17.625"
     inkscape:document-units="mm"
     inkscape:current-layer="svg8"
     showgrid="false"
     units="px"
     inkscape:window-width="1920"
     inkscape:window-height="1009"
     inkscape:window-x="-8"
     inkscape:window-y="-8"
     inkscape:window-maximized="1"
     inkscape:pagecheckerboard="0"
     inkscape:showpageshadow="2"
     inkscape:deskcolor="#d1d1d1" />
  <metadata
     id="metadata5">
    <rdf:RDF>
      <cc:Work
         rdf:about="">
        <dc:format>image/svg+xml</dc:format>
        <dc:type
           rdf:resource="http://purl.org/dc/dcmitype/StillImage" />
        <dc:title />
      </cc:Work>
    </rdf:RDF>
  </metadata>
  <path
     id="path1009"
     d="M 6.1822378,2.1378 C 5.6494049,1.63888 4.9579256,1.36539 4.2243473,1.36604 2.9041451,1.36704 1.7644058,2.27241 1.4497204,3.52808 1.4268134,3.61948 1.3453764,3.68404 1.2511396,3.68404 H 0.27446121 C 0.14666452,3.68404 0.04958138,3.56802 0.07322147,3.44242 0.44200474,1.48405 2.161414,0.00251 4.2269381,0.00251 c 1.1325466,0 2.1610391,0.44547 2.919911,1.17068 L 7.755579,0.56445 C 8.0132692,0.30676 8.4538761,0.48925 8.4538761,0.85371 v 2.28492 c 0,0.22592 -0.1831391,0.40905 -0.4090585,0.40905 H 5.7599019 c -0.3644371,0 -0.5469454,-0.4406 -0.2892555,-0.69832 z M 0.40905855,4.91121 H 2.6939742 c 0.364437,0 0.5469453,0.44061 0.2892554,0.69831 L 2.2716383,6.32111 C 2.8044711,6.82005 3.4960016,7.09353 4.2295969,7.09287 5.5491174,7.09187 6.6893168,6.18708 7.0041559,4.93084 7.0270629,4.83944 7.1084988,4.77489 7.2027368,4.77489 h 0.9766951 c 0.1277964,0 0.2248798,0.11602 0.2012394,0.24162 -0.3688,1.95833 -2.0882093,3.43988 -4.1537332,3.43988 -1.1325468,0 -2.1610392,-0.44547 -2.9199109,-1.17068 L 0.69829705,7.89444 C 0.44060722,8.15214 2.9982837e-8,7.96963 2.9982837e-8,7.60518 V 5.32027 C 2.9982837e-8,5.09435 0.183139,4.91121 0.40905855,4.91121 Z"
     inkscape:connector-curvature="0"
     style="fill:#83d3f6;fill-opacity:1;stroke-width:0.0170441" />
</svg>
