<?xml version="1.0" encoding="UTF-8" standalone="no"?>
<svg
   viewBox="0 0 32 32"
   version="1.1"
   id="svg1"
   sodipodi:docname="computer-desktop-local.svg"
   width="32"
   height="32"
   inkscape:version="1.3.2 (1:1.3.2+202311252150+091e20ef0f)"
   xmlns:inkscape="http://www.inkscape.org/namespaces/inkscape"
   xmlns:sodipodi="http://sodipodi.sourceforge.net/DTD/sodipodi-0.dtd"
   xmlns="http://www.w3.org/2000/svg"
   xmlns:svg="http://www.w3.org/2000/svg">
  <defs
     id="defs1" />
  <sodipodi:namedview
     id="namedview1"
     pagecolor="#ffffff"
     bordercolor="#666666"
     borderopacity="1.0"
     inkscape:showpageshadow="2"
     inkscape:pageopacity="0.0"
     inkscape:pagecheckerboard="0"
     inkscape:deskcolor="#d1d1d1"
     showgrid="true"
     inkscape:zoom="12.97099"
     inkscape:cx="9.5597946"
     inkscape:cy="13.954216"
     inkscape:window-width="3392"
     inkscape:window-height="1371"
     inkscape:window-x="1968"
     inkscape:window-y="32"
     inkscape:window-maximized="1"
     inkscape:current-layer="svg1">
    <inkscape:grid
       id="grid1"
       units="px"
       originx="0"
       originy="0"
       spacingx="1"
       spacingy="1"
       empcolor="#0099e5"
       empopacity="0.30196078"
       color="#0099e5"
       opacity="0.14901961"
       empspacing="5"
       dotted="false"
       gridanglex="30"
       gridanglez="30"
       visible="true" />
  </sodipodi:namedview>
  <!--!Font Awesome Free 6.6.0 by @fontawesome - https://fontawesome.com License - https://fontawesome.com/license/free Copyright 2024 Fonticons, Inc.-->
  <path
     d="M 3.5555556,2 C 1.5944444,2 0,3.5944444 0,5.5555556 V 22.444445 C 0,24.405556 1.5944444,26 3.5555556,26 h 9.7777774 l 0.539823,1.964695 -4.873156,0 c -0.645653,0 -1.167282,0.454763 -1.167282,1.017653 C 7.832718,29.545237 8.354347,30 9,30 l 14,0 c 0.645652,0 1.167281,-0.454763 1.167281,-1.017652 0,-0.56289 -0.521629,-1.017653 -1.167281,-1.017653 H 18.155618 L 18.666667,26 h 9.777777 C 30.405556,26 32,24.405556 32,22.444445 V 5.5555556 C 32,3.5944444 30.405556,2 28.444444,2 Z M 28,6 V 19.960651 H 4 V 6 Z"
     id="path1"
     style="stroke-width:0.0555556;fill:#e3e3e3;fill-opacity:1"
     sodipodi:nodetypes="ssssccssssssccsssssccccc" />
</svg>
