<?xml version="1.0" encoding="UTF-8" standalone="no"?>
<!-- Created with Inkscape (http://www.inkscape.org/) -->

<svg
   width="32"
   height="32"
   viewBox="0 0 8.4666666 8.4666666"
   version="1.1"
   id="svg8"
   inkscape:version="1.2.1 (9c6d41e410, 2022-07-14)"
   sodipodi:docname="daemon.svg"
   xmlns:inkscape="http://www.inkscape.org/namespaces/inkscape"
   xmlns:sodipodi="http://sodipodi.sourceforge.net/DTD/sodipodi-0.dtd"
   xmlns:xlink="http://www.w3.org/1999/xlink"
   xmlns="http://www.w3.org/2000/svg"
   xmlns:svg="http://www.w3.org/2000/svg"
   xmlns:rdf="http://www.w3.org/1999/02/22-rdf-syntax-ns#"
   xmlns:cc="http://creativecommons.org/ns#"
   xmlns:dc="http://purl.org/dc/elements/1.1/">
  <defs
     id="defs2">
    <style
       id="style1399">.cls-1{fill:#e3e3e3;}</style>
    <style
       id="style1281">.cls-1{fill:#e3e3e3;}</style>
    <style
       id="style1301">.cls-1{fill:#e3e3e3;}</style>
    <linearGradient
       id="linearGradient1373">
      <stop
         id="stop1369"
         offset="0"
         style="stop-color:#343434;stop-opacity:1" />
      <stop
         id="stop1371"
         offset="1"
         style="stop-color:#4d4d4d;stop-opacity:1" />
    </linearGradient>
    <linearGradient
       id="linearGradient4663-8-4">
      <stop
         offset="0"
         style="stop-color:#5596ea;stop-opacity:1"
         id="stop4665-6-3" />
      <stop
         offset="1"
         style="stop-color:#5596ea;stop-opacity:0"
         id="stop4667-8-0" />
    </linearGradient>
    <linearGradient
       y2="200.87404"
       x2="1280.8954"
       y1="62.713318"
       x1="1142.5884"
       gradientTransform="rotate(-5.8887665,1223.2651,99.834013)"
       gradientUnits="userSpaceOnUse"
       id="linearGradient1403"
       xlink:href="#linearGradient1373" />
    <linearGradient
       gradientTransform="matrix(0.0111212,0.99993816,0.99993816,-0.0111212,1077.8896,-1093.5223)"
       y2="89.862335"
       x2="1324.9103"
       y1="230.86234"
       x1="1327.5938"
       gradientUnits="userSpaceOnUse"
       id="linearGradient1405"
       xlink:href="#linearGradient4663-8-4" />
    <style
       id="style1435">.cls-1{fill:#ec1818;}</style>
    <style
       id="style2">.a{filter:url(#a);}.b{fill:#710132;}.c{fill:#e3e3e3;}</style>
    <filter
       name="AI_FlouGaussien_4"
       id="a">
      <feGaussianBlur
         id="feGaussianBlur4"
         stdDeviation="4" />
    </filter>
  </defs>
  <sodipodi:namedview
     id="base"
     pagecolor="#ffffff"
     bordercolor="#666666"
     borderopacity="1.0"
     inkscape:pageopacity="0.0"
     inkscape:pageshadow="2"
     inkscape:zoom="8.0000004"
     inkscape:cx="48.999998"
     inkscape:cy="18.124999"
     inkscape:document-units="mm"
     inkscape:current-layer="svg8"
     showgrid="false"
     units="px"
     inkscape:window-width="1920"
     inkscape:window-height="1009"
     inkscape:window-x="-8"
     inkscape:window-y="-8"
     inkscape:window-maximized="1"
     inkscape:showpageshadow="2"
     inkscape:pagecheckerboard="0"
     inkscape:deskcolor="#d1d1d1" />
  <metadata
     id="metadata5">
    <rdf:RDF>
      <cc:Work
         rdf:about="">
        <dc:format>image/svg+xml</dc:format>
        <dc:type
           rdf:resource="http://purl.org/dc/dcmitype/StillImage" />
        <dc:title />
      </cc:Work>
    </rdf:RDF>
  </metadata>
  <path
     style="fill:#83d3f6;fill-opacity:1;stroke:none;stroke-width:0.350632px;stroke-linecap:butt;stroke-linejoin:miter;stroke-opacity:1"
     d="m 8.6018812,4.327232 c -0.4998029,0.4378681 -1.025755,0.4973906 -1.5407801,0.4755905 -0.015376,0.112074 -0.015916,0.1055577 -0.041881,0.2157986 -0.00165,0.00705 -0.00352,0.014037 -0.00562,0.020964 C 6.9619418,5.2084985 6.8989115,5.3670881 6.8279518,5.5168092 7.4992373,5.4394142 8.2876495,5.1632533 8.6018812,4.327232 Z"
     id="path851"
     inkscape:connector-curvature="0"
     sodipodi:nodetypes="cccccc" />
  <path
     style="display:inline;fill:#83d3f6;fill-opacity:1;stroke-width:0.0170448"
     d="m 6.6898655,4.9400009 a 3.390714,3.390714 0 0 0 0.074744,-1.067615 C 6.6984693,3.9128228 6.6342403,3.9550154 6.5712249,3.9971168 6.3151655,4.168193 6.098723,4.3485861 5.8414643,4.4644354 5.7128351,4.5223598 5.5609907,4.5666406 5.3951125,4.5449232 5.2292342,4.5232059 5.0720442,4.4291186 4.9547072,4.3017285 4.8193827,4.1548099 4.7539132,3.9453895 4.7750714,3.7581909 4.7962298,3.5709927 4.8823445,3.4107899 4.9968865,3.2697925 5.2259703,2.9877978 5.5791027,2.7625029 6.0046379,2.6035797 6.1110218,2.5638487 6.2225267,2.5288138 6.3380731,2.4992556 A 3.390714,3.390714 0 0 0 6.0859199,2.1085551 C 5.78068,1.8036735 5.3945368,1.5718086 4.9478655,1.4521234 4.4905077,1.3295747 4.1398022,1.3216067 3.8621614,1.4169369 3.5751523,1.500918 3.3095862,1.6535891 3.1075577,1.8931136 2.5854201,2.5114613 2.452348,2.9791874 2.1668399,3.1497316 1.9075172,3.3050767 1.1991495,3.1917647 0.63044811,2.2009228 A 3.390714,3.390714 0 0 0 0.12834742,3.2481865 l -0.0240748,0.089848 A 3.390714,3.390714 0 0 0 0.02684062,4.565427 C 1.1221765,4.7223528 1.1674202,5.4384242 1.0411566,5.6177683 0.90378811,5.813007 0.78496771,6.1984296 0.96182461,6.3471075 1.138681,6.4957842 1.4326014,6.3806975 1.4541698,6.3864765 c 0.021566,0.00578 0.4023147,0.2311942 0.4199566,0.2516255 0.017639,0.020434 0.034299,0.1020047 0.1046357,0.1286158 0.070334,0.026621 0.097866,-0.027811 0.097866,-0.027811 0.059716,0.011725 0.1184339,0.030338 0.1741958,0.054701 0.00904,0.072836 0.069238,0.1280128 0.1425815,0.1307584 0,0 0.3715909,-0.1076903 0.5509141,-0.029466 0.179322,0.078231 0.1370031,0.3527518 0.2533613,0.4381035 C 4.0143826,7.2887352 4.2630966,6.9068503 4.3908481,6.7475028 4.518599,6.5881555 4.7833774,6.6128545 4.913755,6.6169085 5.0441322,6.6209624 5.1887614,6.512996 5.3116343,6.4298083 5.4345077,6.3466204 5.7568,6.3012471 5.97369,6.1273162 6.265924,5.8718968 6.5326871,5.453919 6.6898655,4.9400009 Z m -2.0787654,1.456713 c 0,0 -0.1519481,0.1408971 -0.3391452,0.06374 0,0 -0.033432,-0.1636795 0.1127499,-0.4207884 0.1526544,0.1053113 0.2263953,0.3570489 0.2263953,0.3570484 z"
     id="circle15" />
  <path
     sodipodi:nodetypes="czc"
     inkscape:connector-curvature="0"
     id="path869"
     d="M 8.7520988,3.2922693 C 7.1199969,1.8875091 4.5430882,3.3871495 5.188166,4.0874962 5.8332437,4.787843 6.5730617,2.7065817 8.7520988,3.2922693 Z"
     style="fill:#83d3f6;fill-opacity:1;stroke:none;stroke-width:0.350632px;stroke-linecap:butt;stroke-linejoin:miter;stroke-opacity:1" />
</svg>
