<?xml version="1.0" encoding="UTF-8" standalone="no"?>
<svg
   viewBox="0 0 32 32"
   version="1.1"
   id="svg1"
   sodipodi:docname="forgot-key.svg"
   width="32"
   height="32"
   inkscape:version="1.3.2 (1:1.3.2+202311252150+091e20ef0f)"
   xmlns:inkscape="http://www.inkscape.org/namespaces/inkscape"
   xmlns:sodipodi="http://sodipodi.sourceforge.net/DTD/sodipodi-0.dtd"
   xmlns="http://www.w3.org/2000/svg"
   xmlns:svg="http://www.w3.org/2000/svg">
  <defs
     id="defs1">
    <inkscape:path-effect
       effect="fillet_chamfer"
       id="path-effect5"
       is_visible="true"
       lpeversion="1"
       nodesatellites_param="F,0,0,1,0,0,0,1 @ F,0,0,1,0,1.2022606,0,1 @ F,0,0,1,0,1.1466836,0,1 @ F,0,0,1,0,0,0,1 @ F,0,0,1,0,0,0,1 @ F,0,0,1,0,0,0,1 @ F,0,0,1,0,1,0,1 @ F,0,0,1,0,0,0,1 @ F,0,0,1,0,0,0,1 @ F,0,0,1,0,0,0,1 @ F,0,0,1,0,0,0,1 @ F,0,0,1,0,0,0,1"
       radius="0"
       unit="px"
       method="auto"
       mode="F"
       chamfer_steps="1"
       flexible="false"
       use_knot_distance="true"
       apply_no_radius="true"
       apply_with_radius="true"
       only_selected="false"
       hide_knots="false" />
  </defs>
  <sodipodi:namedview
     id="namedview1"
     pagecolor="#ffffff"
     bordercolor="#666666"
     borderopacity="1.0"
     inkscape:showpageshadow="2"
     inkscape:pageopacity="0.0"
     inkscape:pagecheckerboard="0"
     inkscape:deskcolor="#d1d1d1"
     showgrid="true"
     inkscape:zoom="16"
     inkscape:cx="-13.875"
     inkscape:cy="26.4375"
     inkscape:window-width="3392"
     inkscape:window-height="1371"
     inkscape:window-x="1968"
     inkscape:window-y="32"
     inkscape:window-maximized="1"
     inkscape:current-layer="svg1">
    <inkscape:grid
       id="grid1"
       units="px"
       originx="0"
       originy="0"
       spacingx="1"
       spacingy="1"
       empcolor="#0099e5"
       empopacity="0.30196078"
       color="#0099e5"
       opacity="0.14901961"
       empspacing="5"
       dotted="false"
       gridanglex="30"
       gridanglez="30"
       visible="true" />
  </sodipodi:namedview>
  <!-- Font Awesome Free 5.15.1 by @fontawesome - https://fontawesome.com License - https://fontawesome.com/license/free (Icons: CC BY 4.0, Fonts: SIL OFL 1.1, Code: MIT License) -->
  <path
     id="path4"
     style="color:#000000;fill:#e3e3e3;stroke-linejoin:round;-inkscape-stroke:none"
     d="M 15.128906 -0.0234375 C 12.432339 -0.023437202 9.7364889 0.87598784 7.5371094 2.6757812 C 7.0234601 3.0961101 7.0265831 3.8625208 7.4960938 4.3320312 L 8.6640625 5.5 C 9.1118691 5.9478066 9.8330749 5.9401498 10.337891 5.5585938 C 12.151058 4.1881403 14.383367 3.6941945 16.501953 4.0683594 C 18.117609 4.2941777 19.680336 5.0338884 20.916016 6.2695312 C 23.55597 8.9094878 23.880858 13.031118 21.892578 16.037109 C 21.891692 16.038921 21.891512 16.041159 21.890625 16.042969 C 21.575318 16.686141 21.202218 17.224843 20.802734 17.603516 C 20.457667 17.930606 20.104073 18.197309 19.738281 18.431641 C 19.658397 18.685922 19.518385 18.949899 19.345703 19.236328 C 19.345703 20.197211 19.355469 21.00005 19.355469 22.175781 C 19.355469 22.668279 19.365967 23.032509 19.373047 23.347656 C 21.865457 22.315989 23.49838 20.56176 23.595703 20.466797 C 25.65593 18.456522 26.712574 15.471954 26.828125 12.365234 C 26.943676 9.2585166 26.047978 5.9171177 23.613281 3.4824219 C 21.275682 1.1448204 18.201982 -0.02343784 15.128906 -0.0234375 z M 15.435547 5.9609375 C 13.956514 5.9609375 12.4768 6.5270834 11.34375 7.6601562 C 9.0843223 9.9196308 9.0842983 13.584299 11.34375 15.84375 C 11.791703 16.291703 12.463577 16.64956 13 16.919922 L 13 23.626953 C 13.000022 23.836181 13.110302 24.014257 13.230469 24.185547 L 14.503906 26 C 14.754153 26.35671 15.340834 26.335277 15.619141 26 L 17.78125 23.396484 L 17.78125 20.119141 L 16.851562 19.189453 L 17.716797 18.324219 C 17.876152 18.164872 17.905808 17.945672 17.892578 17.720703 L 17.892578 16.955078 C 18.443376 16.863821 19.264582 16.104558 19.525391 15.84375 C 21.78484 13.584299 21.78484 9.9196076 19.525391 7.6601562 C 18.392318 6.5270834 16.914579 5.9609375 15.435547 5.9609375 z M 15.435547 7.3632812 C 15.839368 7.3632812 16.242672 7.5161075 16.550781 7.8242188 C 17.167006 8.4404411 17.167006 9.4404181 16.550781 10.056641 C 15.934561 10.672863 14.934581 10.672863 14.318359 10.056641 C 13.702136 9.4404181 13.702136 8.4404411 14.318359 7.8242188 C 14.62647 7.5161075 15.031725 7.3632812 15.435547 7.3632812 z M 14 28 C 13.446001 28 13 28.446001 13 29 L 13 31 C 13 31.553999 13.446001 32 14 32 L 16 32 C 16.553999 32 17 31.553999 17 31 L 17 29 C 17 28.446001 16.553999 28 16 28 L 14 28 z " />
</svg>
