<?xml version="1.0" encoding="UTF-8" standalone="no"?>
<!-- Created with Inkscape (http://www.inkscape.org/) -->

<svg
   width="32"
   height="32"
   viewBox="0 0 8.4666666 8.4666666"
   version="1.1"
   id="svg8"
   inkscape:version="1.3.2 (1:1.3.2+202311252150+091e20ef0f)"
   sodipodi:docname="help-button.svg"
   xmlns:inkscape="http://www.inkscape.org/namespaces/inkscape"
   xmlns:sodipodi="http://sodipodi.sourceforge.net/DTD/sodipodi-0.dtd"
   xmlns="http://www.w3.org/2000/svg"
   xmlns:svg="http://www.w3.org/2000/svg"
   xmlns:rdf="http://www.w3.org/1999/02/22-rdf-syntax-ns#"
   xmlns:cc="http://creativecommons.org/ns#"
   xmlns:dc="http://purl.org/dc/elements/1.1/">
  <defs
     id="defs2" />
  <sodipodi:namedview
     id="base"
     pagecolor="#ffffff"
     bordercolor="#666666"
     borderopacity="1.0"
     inkscape:pageopacity="0.0"
     inkscape:pageshadow="2"
     inkscape:zoom="22.627417"
     inkscape:cx="5.7010484"
     inkscape:cy="20.064155"
     inkscape:document-units="mm"
     inkscape:current-layer="svg8"
     showgrid="true"
     units="px"
     inkscape:window-width="3392"
     inkscape:window-height="1371"
     inkscape:window-x="1968"
     inkscape:window-y="32"
     inkscape:window-maximized="1"
     inkscape:showpageshadow="2"
     inkscape:pagecheckerboard="0"
     inkscape:deskcolor="#d1d1d1">
    <inkscape:grid
       id="grid1"
       units="px"
       originx="0"
       originy="0"
       spacingx="0.26458333"
       spacingy="0.26458333"
       empcolor="#0099e5"
       empopacity="0.30196078"
       color="#0099e5"
       opacity="0.14901961"
       empspacing="5"
       dotted="false"
       gridanglex="30"
       gridanglez="30"
       visible="true" />
  </sodipodi:namedview>
  <metadata
     id="metadata5">
    <rdf:RDF>
      <cc:Work
         rdf:about="">
        <dc:format>image/svg+xml</dc:format>
        <dc:type
           rdf:resource="http://purl.org/dc/dcmitype/StillImage" />
      </cc:Work>
    </rdf:RDF>
  </metadata>
  <path
     id="path1"
     style="fill:#e3e3e3;stroke:none;stroke-width:1.05833;stroke-linecap:round;stroke-linejoin:round"
     d="M 4.2333333,0 C 1.8953278,-1.1045696e-7 -1.1045696e-7,1.8953278 0,4.2333333 -1.6568544e-7,6.5713388 1.8953278,8.4666668 4.2333333,8.4666667 6.5713388,8.4666669 8.4666669,6.5713388 8.4666667,4.2333333 8.4666668,1.8953278 6.5713388,-1.6568544e-7 4.2333333,0 Z m 0.1206949,1.2594919 c 1.0237793,0 2.1166664,0.7989655 2.1166664,1.8524585 0,1.3989196 -1.5107894,1.4207905 -1.5107894,1.9377254 v 0.024019 c 0,0.1203539 -0.097605,0.2179716 -0.2179716,0.2179716 H 3.7247328 c -0.120365,0 -0.2179716,-0.097603 -0.2179716,-0.2179716 v -0.072657 c 0,-0.7457631 0.5653132,-1.0436857 0.9925814,-1.2832101 C 4.8657098,3.5124284 5.0902078,3.3725682 5.0902078,3.1005414 5.0902078,2.7407369 4.6314075,2.50187 4.2603544,2.50187 3.7665009,2.50187 3.5442,2.7406534 3.2197352,3.152182 3.1462837,3.2454766 3.011636,3.2623543 2.9170969,3.1906123 L 2.2866005,2.712636 C 2.1945493,2.6428229 2.1731366,2.5138953 2.2373618,2.4178038 2.7331042,1.6767235 3.3641956,1.2594919 4.3540282,1.2594919 Z M 4.2333331,5.7642385 c 0.4607061,0 0.8352577,0.3745471 0.8352577,0.8352576 0,0.4606885 -0.3745516,0.8352575 -0.8352577,0.8352575 -0.4607061,0 -0.8352575,-0.374569 -0.8352575,-0.8352575 0,-0.4607105 0.3745514,-0.8352576 0.8352575,-0.8352576 z"
     sodipodi:nodetypes="ssssssssssssscssccccssssss" />
</svg>
