<?xml version="1.0" encoding="UTF-8" standalone="no"?>
<svg
   viewBox="0 0 32 32"
   version="1.1"
   id="svg1"
   sodipodi:docname="key.svg"
   width="32"
   height="32"
   inkscape:version="1.3.2 (1:1.3.2+202311252150+091e20ef0f)"
   xmlns:inkscape="http://www.inkscape.org/namespaces/inkscape"
   xmlns:sodipodi="http://sodipodi.sourceforge.net/DTD/sodipodi-0.dtd"
   xmlns="http://www.w3.org/2000/svg"
   xmlns:svg="http://www.w3.org/2000/svg">
  <defs
     id="defs1" />
  <sodipodi:namedview
     id="namedview1"
     pagecolor="#ffffff"
     bordercolor="#666666"
     borderopacity="1.0"
     inkscape:showpageshadow="2"
     inkscape:pageopacity="0.0"
     inkscape:pagecheckerboard="0"
     inkscape:deskcolor="#d1d1d1"
     showgrid="true"
     inkscape:zoom="18.34375"
     inkscape:cx="22.732538"
     inkscape:cy="12.919932"
     inkscape:window-width="3392"
     inkscape:window-height="1371"
     inkscape:window-x="1968"
     inkscape:window-y="32"
     inkscape:window-maximized="1"
     inkscape:current-layer="svg1">
    <inkscape:grid
       id="grid1"
       units="px"
       originx="0"
       originy="0"
       spacingx="1"
       spacingy="1"
       empcolor="#0099e5"
       empopacity="0.30196078"
       color="#0099e5"
       opacity="0.14901961"
       empspacing="5"
       dotted="false"
       gridanglex="30"
       gridanglez="30"
       visible="true" />
  </sodipodi:namedview>
  <!-- Font Awesome Free 5.15.1 by @fontawesome - https://fontawesome.com License - https://fontawesome.com/license/free (Icons: CC BY 4.0, Fonts: SIL OFL 1.1, Code: MIT License) -->
  <path
     d="m 31.999986,11.000056 c 0,6.075124 -4.924875,10.999937 -10.999996,10.999937 -0.701251,0 -1.386875,-0.06639 -2.051689,-0.191815 l -1.50074,1.688384 a 1.4999372,1.4999372 0 0 1 -1.121125,0.50344 H 14 v 2.499999 c -2e-6,0.828437 -0.671563,1.5 -1.5,1.500001 H 10 V 30.5 C 10,31.328436 9.3284386,31.999999 8.5000022,32 H 1.5000011 C 0.67156459,32 2.185e-6,31.328436 2.185e-6,30.5 l -4.37e-6,-4.878692 C -3.275e-6,25.223495 0.15805784,24.841933 0.43930824,24.560621 L 10.551931,14.447998 C 10.194244,13.363374 9.9999952,12.204434 9.9999952,10.999998 9.999994,4.924876 14.924806,6.2777107e-5 20.99993,0 27.092991,-6.2310702e-5 31.999991,4.9069367 31.999991,11.00006 Z M 20.99999,7.9999943 c -3e-6,1.6568741 1.343123,2.9999997 2.999997,2.9999977 1.656876,2e-6 3.000001,-1.3431221 2.999999,-2.9999992 0,-1.6568732 -1.343123,-2.9999981 -2.999997,-2.9999971 -1.656876,-1.3e-6 -3.000002,1.3431235 -2.999999,2.9999986 z"
     id="path1"
     style="fill:#e3e3e3;fill-opacity:1;stroke-width:0.0625001" />
</svg>
