<?xml version="1.0" encoding="UTF-8" standalone="no"?>
<svg
   width="32"
   height="32"
   viewBox="0 0 8.4666666 8.4666666"
   version="1.1"
   id="svg8"
   inkscape:version="1.3.2 (1:1.3.2+202311252150+091e20ef0f)"
   sodipodi:docname="load_sl.svg"
   xmlns:inkscape="http://www.inkscape.org/namespaces/inkscape"
   xmlns:sodipodi="http://sodipodi.sourceforge.net/DTD/sodipodi-0.dtd"
   xmlns="http://www.w3.org/2000/svg"
   xmlns:svg="http://www.w3.org/2000/svg"
   xmlns:rdf="http://www.w3.org/1999/02/22-rdf-syntax-ns#"
   xmlns:cc="http://creativecommons.org/ns#"
   xmlns:dc="http://purl.org/dc/elements/1.1/">
  <defs
     id="defs2" />
  <sodipodi:namedview
     id="base"
     pagecolor="#ffffff"
     bordercolor="#666666"
     borderopacity="1.0"
     inkscape:pageopacity="0.0"
     inkscape:pageshadow="2"
     inkscape:zoom="4"
     inkscape:cx="-42.25"
     inkscape:cy="10"
     inkscape:document-units="mm"
     inkscape:current-layer="svg8"
     showgrid="false"
     units="px"
     inkscape:window-width="3392"
     inkscape:window-height="1371"
     inkscape:window-x="1968"
     inkscape:window-y="32"
     inkscape:window-maximized="1"
     inkscape:document-rotation="0"
     inkscape:pagecheckerboard="0"
     inkscape:showpageshadow="2"
     inkscape:deskcolor="#d1d1d1" />
  <metadata
     id="metadata5">
    <rdf:RDF>
      <cc:Work
         rdf:about="">
        <dc:format>image/svg+xml</dc:format>
        <dc:type
           rdf:resource="http://purl.org/dc/dcmitype/StillImage" />
      </cc:Work>
    </rdf:RDF>
  </metadata>
  <path
     id="path1488"
     style="fill:#e3e3e3;fill-opacity:1;stroke-width:0.00957675"
     d="m 6.5585027,0.80152 c -0.05874,-3.6e-4 -0.117984,0.0219 -0.163298,0.0667 l -1.96112,1.93735 0.634069,0.63407 c 0.139354,0.13909 0.220659,0.32912 0.220659,0.53123 0,0.7308 -0.0052,1.47234 -0.0052,2.25516 l 0.293522,0.29714 c 0.0895,0.0907 0.234428,0.0916 0.325045,0.002 0,0 1.663133,-1.67251 2.498038,-2.46858 0.03838,-0.0379 0.0607,-0.0897 0.06098,-0.14418 l 0.0078,-1.18752 c 4.29e-4,-0.0547 -0.02139,-0.10676 -0.05994,-0.14576 -0.562458,-0.57011 -1.125751,-1.1394 -1.688787,-1.70894 -0.04477,-0.0453 -0.103007,-0.0684 -0.161747,-0.0687 z M 0.22762273,1.33947 c -0.12737,0 -0.22996,0.10255 -0.22996,0.22996 v 4.32635 c 0,0.12737 0.102589,0.22996 0.22996,0.22996 h 0.293522 V 3.15642 c 0,-0.4218 0.353413,-0.77567 0.77514697,-0.77567 0.846079,10e-4 1.406077,0 2.378666,0 v -0.0408 -5.1e-4 c 0,-0.0517 -0.02043,-0.1017 -0.05736,-0.1385 L 2.8140287,1.39685 c -0.03693,-0.037 -0.08701,-0.0574 -0.139526,-0.0574 z M 1.2957747,2.92594 c -0.12737,0 -0.22996,0.10203 -0.22996,0.22944 v 4.28036 c 0,0.12737 0.102589,0.22944 0.22996,0.22944 h 3.217891 c 0.127371,0 0.230471,-0.10206 0.22996,-0.22944 -0.0046,-1.15487 -0.02408,-2.31024 0,-3.4649 0,-0.054 -0.02137,-0.10671 -0.05995,-0.14521 L 3.8444507,2.98588 c -0.03857,-0.0387 -0.09087,-0.0599 -0.145727,-0.0599 -0.800904,1e-5 -1.60205,0 -2.402954,0 z" />
</svg>
