<?xml version="1.0" encoding="UTF-8" standalone="no"?>
<!-- Created with Inkscape (http://www.inkscape.org/) -->

<svg
   width="32"
   height="32"
   viewBox="0 0 8.4666666 8.4666666"
   version="1.1"
   id="svg8"
   inkscape:version="1.2.1 (9c6d41e410, 2022-07-14)"
   sodipodi:docname="more.svg"
   xmlns:inkscape="http://www.inkscape.org/namespaces/inkscape"
   xmlns:sodipodi="http://sodipodi.sourceforge.net/DTD/sodipodi-0.dtd"
   xmlns="http://www.w3.org/2000/svg"
   xmlns:svg="http://www.w3.org/2000/svg"
   xmlns:rdf="http://www.w3.org/1999/02/22-rdf-syntax-ns#"
   xmlns:cc="http://creativecommons.org/ns#"
   xmlns:dc="http://purl.org/dc/elements/1.1/">
  <defs
     id="defs2">
    <style
       id="style1399">.cls-1{fill:#e3e3e3;}</style>
    <style
       id="style1399-1">.cls-1{fill:#e3e3e3;}</style>
    <style
       id="style1399-5">.cls-1{fill:#e3e3e3;}</style>
    <style
       id="style1399-8">.cls-1{fill:#e3e3e3;}</style>
  </defs>
  <sodipodi:namedview
     id="base"
     pagecolor="#ffffff"
     bordercolor="#666666"
     borderopacity="1.0"
     inkscape:pageopacity="0.0"
     inkscape:pageshadow="2"
     inkscape:zoom="15.999999"
     inkscape:cx="12.375001"
     inkscape:cy="16.375001"
     inkscape:document-units="mm"
     inkscape:current-layer="svg8"
     showgrid="false"
     units="px"
     inkscape:window-width="1920"
     inkscape:window-height="1009"
     inkscape:window-x="-8"
     inkscape:window-y="-8"
     inkscape:window-maximized="1"
     inkscape:showpageshadow="0"
     inkscape:pagecheckerboard="1"
     inkscape:deskcolor="#d1d1d1" />
  <metadata
     id="metadata5">
    <rdf:RDF>
      <cc:Work
         rdf:about="">
        <dc:format>image/svg+xml</dc:format>
        <dc:type
           rdf:resource="http://purl.org/dc/dcmitype/StillImage" />
      </cc:Work>
    </rdf:RDF>
  </metadata>
  <path
     id="path370"
     style="fill:#e3e3e3;stroke-width:0.721758;stroke-linecap:round;stroke-linejoin:round;stroke-dasharray:0.721758, 0.721758"
     d="M 1.0593669 3.1739665 A 1.0592383 1.0592383 0 0 0 0 4.2333333 A 1.0592383 1.0592383 0 0 0 1.0593669 5.2927002 A 1.0592383 1.0592383 0 0 0 2.1187337 4.2333333 A 1.0592383 1.0592383 0 0 0 1.0593669 3.1739665 z M 4.2333333 3.1739665 A 1.0592383 1.0592383 0 0 0 3.1739665 4.2333333 A 1.0592383 1.0592383 0 0 0 4.2333333 5.2927002 A 1.0592383 1.0592383 0 0 0 5.2927002 4.2333333 A 1.0592383 1.0592383 0 0 0 4.2333333 3.1739665 z M 7.4072998 3.1739665 A 1.0592383 1.0592383 0 0 0 6.3479329 4.2333333 A 1.0592383 1.0592383 0 0 0 7.4072998 5.2927002 A 1.0592383 1.0592383 0 0 0 8.4666667 4.2333333 A 1.0592383 1.0592383 0 0 0 7.4072998 3.1739665 z " />
</svg>
