<?xml version="1.0" encoding="UTF-8" standalone="no"?>
<!-- Created with Inkscape (http://www.inkscape.org/) -->

<svg
   width="32"
   height="32"
   viewBox="0 0 8.4666666 8.4666666"
   version="1.1"
   id="svg8"
   inkscape:version="1.3.2 (1:1.3.2+202311252150+091e20ef0f)"
   sodipodi:docname="ramses-file.svg"
   xml:space="preserve"
   xmlns:inkscape="http://www.inkscape.org/namespaces/inkscape"
   xmlns:sodipodi="http://sodipodi.sourceforge.net/DTD/sodipodi-0.dtd"
   xmlns="http://www.w3.org/2000/svg"
   xmlns:svg="http://www.w3.org/2000/svg"
   xmlns:rdf="http://www.w3.org/1999/02/22-rdf-syntax-ns#"
   xmlns:cc="http://creativecommons.org/ns#"
   xmlns:dc="http://purl.org/dc/elements/1.1/"><defs
     id="defs2"><style
       id="style2">.a{filter:url(#a);}.b{fill:#710132;}.c{fill:#e3e3e3;}</style><filter
       name="AI_FlouGaussien_4"
       id="a"><feGaussianBlur
         id="feGaussianBlur4"
         stdDeviation="4" /></filter><style
       id="style2-6">.a{filter:url(#a);}.b{fill:#710132;}.c{fill:#e3e3e3;}</style><filter
       name="AI_FlouGaussien_4"
       id="a-2"><feGaussianBlur
         id="feGaussianBlur4-9"
         stdDeviation="4" /></filter><style
       id="style2-1">.a{filter:url(#a);}.b{fill:#710132;}.c{fill:#e3e3e3;}</style><filter
       name="AI_FlouGaussien_4"
       id="a-3"><feGaussianBlur
         id="feGaussianBlur4-3"
         stdDeviation="4" /></filter></defs><sodipodi:namedview
     id="base"
     pagecolor="#ffffff"
     bordercolor="#666666"
     borderopacity="1.0"
     inkscape:pageopacity="0.0"
     inkscape:pageshadow="2"
     inkscape:zoom="7.9999995"
     inkscape:cx="5.1250003"
     inkscape:cy="36.625002"
     inkscape:document-units="mm"
     inkscape:current-layer="svg8"
     showgrid="true"
     units="px"
     inkscape:window-width="3392"
     inkscape:window-height="1371"
     inkscape:window-x="1968"
     inkscape:window-y="32"
     inkscape:window-maximized="1"
     inkscape:showpageshadow="2"
     inkscape:pagecheckerboard="0"
     inkscape:deskcolor="#d1d1d1"><inkscape:grid
       id="grid1"
       units="px"
       originx="0"
       originy="0"
       spacingx="0.26458333"
       spacingy="0.26458333"
       empcolor="#0099e5"
       empopacity="0.30196078"
       color="#0099e5"
       opacity="0.14902"
       empspacing="5"
       dotted="false"
       gridanglex="30"
       gridanglez="30"
       visible="true" /></sodipodi:namedview><metadata
     id="metadata5"><rdf:RDF><cc:Work
         rdf:about=""><dc:format>image/svg+xml</dc:format><dc:type
           rdf:resource="http://purl.org/dc/dcmitype/StillImage" /></cc:Work></rdf:RDF></metadata><path
     id="path965"
     style="fill:#e3e3e3;fill-opacity:1;stroke-width:0.0165477"
     d="M 1.4557251 -0.0031005859 C 1.2356406 -0.0031005859 1.0583333 0.17420669 1.0583333 0.39429118 L 1.0583333 8.0723755 C 1.0583333 8.2924595 1.2356406 8.4697673 1.4557251 8.4697673 L 7.0155924 8.4697673 C 7.2356769 8.4697673 7.4124674 8.2924595 7.4124674 8.0723755 L 7.4124674 2.0143473 C 7.4124674 1.9100967 7.3711776 1.8092428 7.2967122 1.7347778 L 5.6766561 0.11317139 C 5.6021914 0.038706711 5.5014417 -0.0031005859 5.3955363 -0.0031005859 L 1.4557251 -0.0031005859 z M 3.8116536 2.0360514 C 4.1346774 2.0259824 4.4835591 2.1300653 4.7454468 2.2918498 C 4.917845 2.408716 5.0215365 2.6289422 5.1082153 2.6985433 C 5.1948947 2.7681386 5.304028 2.8482407 5.3299072 2.9424561 C 5.3557911 3.0367058 5.3969195 3.2313853 5.5391968 3.2876546 C 5.6814746 3.3439354 6.0125182 3.4924686 6.2218424 4.0131917 C 6.2829573 4.165222 5.9803893 4.145569 5.9639771 4.2912109 C 5.9475645 4.4368472 6.106604 4.6787842 6.106604 4.6787842 C 6.1386907 4.787591 6.0327368 4.8188743 5.9996338 4.8715373 C 5.9996338 4.8715373 6.0898267 4.9177032 6.0854167 5.0100301 C 6.0827347 5.0662991 6.027432 5.096382 6.016687 5.113383 C 6.005954 5.1305271 5.9206471 5.2506832 5.9288371 5.4699504 C 5.9315541 5.5429288 6.0768452 5.671737 6.0094523 5.8311686 C 5.9420648 5.990612 5.6400475 5.9902772 5.4699504 5.9350382 C 5.2918942 5.9007558 4.8220789 5.8478438 4.9407837 6.8791667 C 4.5832284 6.8791667 3.6594706 6.8776164 3.3031576 6.8776164 C 3.9348171 6.134117 3.6489635 5.4448205 3.4928101 5.3950195 C 3.1199097 5.2760755 2.7749468 5.2115314 2.4701335 5.0126139 C 2.2813204 4.8893996 2.1028812 4.7278843 1.9978109 4.5284058 C 1.8887477 4.3213427 1.8720926 4.1539231 1.8603516 3.8395589 C 1.8307767 3.0477298 2.2126478 2.3679875 3.0344401 2.1533569 C 3.262608 2.0889592 3.4886282 2.0460116 3.8116536 2.0360514 z M 5.041036 3.1843018 C 5.041036 3.1843018 4.7353588 3.3866855 4.6575968 3.6338867 C 5.0611 3.7232081 5.2653117 3.6111491 5.2653117 3.6111491 C 5.2912534 3.3294132 5.041036 3.1843018 5.041036 3.1843018 z " /></svg>
