<?xml version="1.0" encoding="UTF-8" standalone="no"?>
<!-- Created with Inkscape (http://www.inkscape.org/) -->

<svg
   width="32"
   height="32"
   viewBox="0 0 8.4666666 8.4666666"
   version="1.1"
   id="svg8"
   inkscape:version="1.2.2 (732a01da63, 2022-12-09)"
   sodipodi:docname="server90.svg"
   xmlns:inkscape="http://www.inkscape.org/namespaces/inkscape"
   xmlns:sodipodi="http://sodipodi.sourceforge.net/DTD/sodipodi-0.dtd"
   xmlns="http://www.w3.org/2000/svg"
   xmlns:svg="http://www.w3.org/2000/svg"
   xmlns:rdf="http://www.w3.org/1999/02/22-rdf-syntax-ns#"
   xmlns:cc="http://creativecommons.org/ns#"
   xmlns:dc="http://purl.org/dc/elements/1.1/">
  <defs
     id="defs2" />
  <sodipodi:namedview
     id="base"
     pagecolor="#ffffff"
     bordercolor="#666666"
     borderopacity="1.0"
     inkscape:pageopacity="0.0"
     inkscape:pageshadow="2"
     inkscape:zoom="8"
     inkscape:cx="29.5625"
     inkscape:cy="14"
     inkscape:document-units="mm"
     inkscape:current-layer="layer1"
     showgrid="false"
     units="px"
     inkscape:window-width="3440"
     inkscape:window-height="1369"
     inkscape:window-x="1912"
     inkscape:window-y="-8"
     inkscape:window-maximized="1"
     inkscape:showpageshadow="0"
     inkscape:pagecheckerboard="0"
     inkscape:deskcolor="#d1d1d1" />
  <metadata
     id="metadata5">
    <rdf:RDF>
      <cc:Work
         rdf:about="">
        <dc:format>image/svg+xml</dc:format>
        <dc:type
           rdf:resource="http://purl.org/dc/dcmitype/StillImage" />
      </cc:Work>
    </rdf:RDF>
  </metadata>
  <g
     inkscape:label="Layer 1"
     inkscape:groupmode="layer"
     id="layer1"
     transform="translate(0,-288.53334)">
    <path
       id="path1159"
       d="m 2.5985765,291.26452 c -1.52223,0.24717 -2.59101,0.83015 -2.59101,1.50858 0,0.67844 1.06878,1.26142 2.59101,1.50859 z m 1.63642,3.14501 c 0.37843,0 0.74151,-0.0205 1.09095,-0.0563 v -3.15865 c -0.34944,-0.0358 -0.71252,-0.0563 -1.09095,-0.0563 -0.37841,0 -0.7415,0.0205 -1.09094,0.0563 v 3.15865 c 0.34944,0.0358 0.71253,0.0563 1.09094,0.0563 z m -1.63642,-5.53488 c -1.15745,0.48752 -2.05236,1.47449 -2.41373,2.69329 0.57617,-0.41593 1.4438,-0.7023 2.41373,-0.85231 z m -2.41373,5.10532 c 0.36137,1.2171 1.25628,2.20577 2.41373,2.69159 v -1.84099 c -0.96993,-0.1483 -1.83756,-0.43467 -2.41373,-0.8506 z m 2.95921,-5.28772 v 1.9552 c 0.35797,-0.0358 0.72445,-0.0563 1.09094,-0.0563 0.36649,0 0.73299,0.0205 1.09095,0.0563 v -1.95349 c -0.34944,-0.0938 -0.71252,-0.1466 -1.09095,-0.1466 -0.37841,0 -0.7415,0.0528 -1.09094,0.14489 z m 1.09094,6.26276 c -0.36649,0 -0.73297,-0.0205 -1.09094,-0.0563 v 1.95519 c 0.34944,0.0921 0.71253,0.1466 1.09094,0.1466 0.37843,0 0.74151,-0.0545 1.09095,-0.1466 v -1.95349 c -0.35796,0.0341 -0.72446,0.0546 -1.09095,0.0546 z m 1.63643,-0.67332 c 1.52223,-0.24717 2.59102,-0.83015 2.59102,-1.50859 0,-0.67843 -1.06879,-1.26141 -2.59102,-1.50858 z m 2.41374,-2.71545 c -0.36137,-1.2171 -1.2563,-2.20578 -2.41374,-2.6933 v 1.84099 c 0.96992,0.15 1.83758,0.43638 2.41374,0.85231 z m -2.41374,5.10532 c 1.15744,-0.48752 2.05237,-1.47449 2.41374,-2.69329 -0.57616,0.41592 -1.44382,0.7023 -2.41374,0.8523 z"
       inkscape:connector-curvature="0"
       style="fill:#83d3f6;fill-opacity:1;stroke-width:0.0170461" />
  </g>
</svg>
