<?xml version="1.0" encoding="UTF-8" standalone="no"?>
<svg
   viewBox="0 0 32 32"
   version="1.1"
   id="svg1"
   sodipodi:docname="server.svg"
   width="32"
   height="32"
   inkscape:version="1.3.2 (1:1.3.2+202311252150+091e20ef0f)"
   xmlns:inkscape="http://www.inkscape.org/namespaces/inkscape"
   xmlns:sodipodi="http://sodipodi.sourceforge.net/DTD/sodipodi-0.dtd"
   xmlns="http://www.w3.org/2000/svg"
   xmlns:svg="http://www.w3.org/2000/svg">
  <defs
     id="defs1" />
  <sodipodi:namedview
     id="namedview1"
     pagecolor="#ffffff"
     bordercolor="#666666"
     borderopacity="1.0"
     inkscape:showpageshadow="2"
     inkscape:pageopacity="0.0"
     inkscape:pagecheckerboard="0"
     inkscape:deskcolor="#d1d1d1"
     inkscape:zoom="25.94198"
     inkscape:cx="13.453098"
     inkscape:cy="21.3168"
     inkscape:window-width="3392"
     inkscape:window-height="1371"
     inkscape:window-x="1968"
     inkscape:window-y="32"
     inkscape:window-maximized="1"
     inkscape:current-layer="svg1"
     showgrid="true">
    <inkscape:grid
       id="grid1"
       units="px"
       originx="0"
       originy="0"
       spacingx="1"
       spacingy="1"
       empcolor="#0099e5"
       empopacity="0.30196078"
       color="#0099e5"
       opacity="0.14901961"
       empspacing="5"
       dotted="false"
       gridanglex="30"
       gridanglez="30"
       visible="true" />
  </sodipodi:namedview>
  <!--!Font Awesome Free 6.6.0 by @fontawesome - https://fontawesome.com License - https://fontawesome.com/license/free Copyright 2024 Fonticons, Inc.-->
  <path
     d="M 4,2 C 1.79375,2 0,3.79375 0,6 v 4 c 0,2.20625 1.79375,4 4,4 h 24 c 2.20625,0 4,-1.79375 4,-4 V 6 C 32,3.79375 30.20625,2 28,2 Z m 17.5,4.5 a 1.5,1.5 0 1 1 0,3 1.5,1.5 0 1 1 0,-3 z m 3,1.5 a 1.5,1.5 0 1 1 3,0 1.5,1.5 0 1 1 -3,0 z M 4,18 c -2.20625,0 -4,1.79375 -4,4 v 4 c 0,2.20625 1.79375,4 4,4 h 24 c 2.20625,0 4,-1.79375 4,-4 v -4 c 0,-2.20625 -1.79375,-4 -4,-4 z m 17.5,4.5 a 1.5,1.5 0 1 1 0,3 1.5,1.5 0 1 1 0,-3 z M 25,24 a 1.5,1.5 0 1 1 3,0 1.5,1.5 0 1 1 -3,0 z"
     id="path1"
     style="fill:#e3e3e3;fill-opacity:1;stroke-width:0.0625" />
</svg>
