<?xml version="1.0" encoding="UTF-8" standalone="no"?>
<!-- Created with Inkscape (http://www.inkscape.org/) -->

<svg
   width="32"
   height="32"
   viewBox="0 0 8.4666666 8.4666666"
   version="1.1"
   id="svg8"
   inkscape:version="1.3.2 (1:1.3.2+202311252150+091e20ef0f)"
   sodipodi:docname="settings-file.svg"
   xml:space="preserve"
   xmlns:inkscape="http://www.inkscape.org/namespaces/inkscape"
   xmlns:sodipodi="http://sodipodi.sourceforge.net/DTD/sodipodi-0.dtd"
   xmlns="http://www.w3.org/2000/svg"
   xmlns:svg="http://www.w3.org/2000/svg"
   xmlns:rdf="http://www.w3.org/1999/02/22-rdf-syntax-ns#"
   xmlns:cc="http://creativecommons.org/ns#"
   xmlns:dc="http://purl.org/dc/elements/1.1/"><defs
     id="defs2" /><sodipodi:namedview
     id="base"
     pagecolor="#ffffff"
     bordercolor="#666666"
     borderopacity="1.0"
     inkscape:pageopacity="0.0"
     inkscape:pageshadow="2"
     inkscape:zoom="22.627416"
     inkscape:cx="5.4358837"
     inkscape:cy="18.163807"
     inkscape:document-units="mm"
     inkscape:current-layer="svg8"
     showgrid="true"
     units="px"
     inkscape:window-width="3392"
     inkscape:window-height="1371"
     inkscape:window-x="1968"
     inkscape:window-y="32"
     inkscape:window-maximized="1"
     inkscape:showpageshadow="2"
     inkscape:pagecheckerboard="0"
     inkscape:deskcolor="#d1d1d1"><inkscape:grid
       id="grid1"
       units="px"
       originx="0"
       originy="0"
       spacingx="0.26458333"
       spacingy="0.26458333"
       empcolor="#0099e5"
       empopacity="0.30196078"
       color="#0099e5"
       opacity="0.14901961"
       empspacing="5"
       dotted="false"
       gridanglex="30"
       gridanglez="30"
       visible="true" /></sodipodi:namedview><metadata
     id="metadata5"><rdf:RDF><cc:Work
         rdf:about=""><dc:format>image/svg+xml</dc:format><dc:type
           rdf:resource="http://purl.org/dc/dcmitype/StillImage" /></cc:Work></rdf:RDF></metadata><path
     id="path965"
     style="fill:#e3e3e3;fill-opacity:1;stroke-width:0.0165477"
     d="M 1.4557251 0 C 1.2356406 0 1.0583333 0.17730727 1.0583333 0.39739176 L 1.0583333 8.0754761 C 1.0583333 8.2955601 1.2356406 8.4723511 1.4557251 8.4723511 L 7.0155924 8.4723511 C 7.2356769 8.4723511 7.4124674 8.2955601 7.4124674 8.0754761 L 7.4124674 2.0169312 C 7.4124674 1.9126806 7.3711776 1.8118266 7.2967122 1.7373617 L 5.6766561 0.11575521 C 5.6021914 0.041290533 5.5014417 -9.7915405e-18 5.3955363 0 L 1.4557251 0 z M 4.2260986 2.4933879 C 4.4101507 2.492886 4.5965346 2.5127218 4.7805868 2.5538493 C 4.8357527 2.5658812 4.8746379 2.6150218 4.8746379 2.6711548 L 4.8746379 3.1636312 C 5.0983087 3.2418593 5.3048813 3.3610836 5.4844198 3.5155477 L 5.9117839 3.2690511 C 5.9599283 3.2410137 6.0219809 3.2507026 6.0600952 3.2917887 C 6.307838 3.5605944 6.4975651 3.8834949 6.6088989 4.240568 C 6.6249472 4.2947325 6.6027522 4.3530319 6.5536051 4.3811279 L 6.126241 4.6281413 C 6.16937 4.8608392 6.16937 5.0992705 6.126241 5.3319743 L 6.5536051 5.5789876 C 6.6027536 5.6070778 6.6249784 5.6649303 6.6099325 5.7200643 C 6.4985987 6.0781426 6.3088716 6.4010432 6.0611287 6.6688436 C 6.0230144 6.7109875 5.9619643 6.720194 5.9128174 6.692098 L 5.4854533 6.4456014 C 5.3049119 6.5990601 5.0983391 6.7182728 4.8756714 6.7975179 L 4.8756714 7.2910278 C 4.8756714 7.3472201 4.8367852 7.3963423 4.7816203 7.4083333 C 4.4315701 7.4865733 4.054184 7.4905883 3.6860799 7.4083333 C 3.630914 7.3963014 3.5920288 7.3471618 3.5920288 7.2910278 L 3.5920288 6.7975179 C 3.3683577 6.7192778 3.1617853 6.6000652 2.9822469 6.4456014 L 2.5548828 6.692098 C 2.5067384 6.720135 2.4441686 6.7099295 2.4060547 6.6688436 C 2.1583115 6.4000321 1.9691016 6.0771374 1.8577677 5.7200643 C 1.8417198 5.6659054 1.8639146 5.6081171 1.9130615 5.5800212 L 2.3399089 5.3330078 C 2.2967799 5.1003098 2.2967799 4.861867 2.3399089 4.6291748 L 1.9130615 4.3821615 C 1.8639166 4.3540829 1.8407168 4.2957945 1.8577677 4.2416016 C 1.9691016 3.8835232 2.1583115 3.5606228 2.4060547 3.2928223 C 2.444169 3.2506783 2.5057349 3.2419887 2.5548828 3.2700846 L 2.9812134 3.5165812 C 3.1617549 3.3631225 3.3683272 3.2439036 3.5909953 3.1646647 L 3.5909953 2.6711548 C 3.5909953 2.6149625 3.6298804 2.5658403 3.6850464 2.5538493 C 3.8600714 2.5147293 4.0420465 2.4938897 4.2260986 2.4933879 z M 4.2328166 4.1775228 C 3.7904897 4.1775228 3.4302816 4.5377323 3.4302816 4.9800578 C 3.4302816 5.4223833 3.7904897 5.7825928 4.2328166 5.7825928 C 4.6751432 5.7825928 5.0353516 5.4223833 5.0353516 4.9800578 C 5.0353516 4.5377323 4.6751432 4.1775228 4.2328166 4.1775228 z " /></svg>
