<?xml version="1.0" encoding="UTF-8" standalone="no"?>
<!-- Created with Inkscape (http://www.inkscape.org/) -->

<svg
   width="32"
   height="32"
   viewBox="0 0 8.4666666 8.4666666"
   version="1.1"
   id="svg8"
   inkscape:version="1.2.2 (732a01da63, 2022-12-09)"
   sodipodi:docname="storage-load-read.svg"
   xml:space="preserve"
   xmlns:inkscape="http://www.inkscape.org/namespaces/inkscape"
   xmlns:sodipodi="http://sodipodi.sourceforge.net/DTD/sodipodi-0.dtd"
   xmlns="http://www.w3.org/2000/svg"
   xmlns:svg="http://www.w3.org/2000/svg"
   xmlns:rdf="http://www.w3.org/1999/02/22-rdf-syntax-ns#"
   xmlns:cc="http://creativecommons.org/ns#"
   xmlns:dc="http://purl.org/dc/elements/1.1/"><defs
     id="defs2"><style
       id="style1399">.cls-1{fill:#e3e3e3;}</style><style
       id="style1399-4">.cls-1{fill:#e3e3e3;}</style><style
       id="style1399-8">.cls-1{fill:#e3e3e3;}</style><style
       id="style1399-4-5">.cls-1{fill:#e3e3e3;}</style><style
       id="style1399-0">.cls-1{fill:#e3e3e3;}</style><style
       id="style854">.cls-1{fill:#e3e3e3;}</style><style
       id="style1399-84">.cls-1{fill:#e3e3e3;}</style><style
       id="style1399-4-8">.cls-1{fill:#e3e3e3;}</style><style
       id="style1399-8-10">.cls-1{fill:#e3e3e3;}</style><style
       id="style1399-4-5-3">.cls-1{fill:#e3e3e3;}</style><style
       id="style1399-0-0">.cls-1{fill:#e3e3e3;}</style><style
       id="style1399-5">.cls-1{fill:#e3e3e3;}</style><style
       id="style1399-4-6">.cls-1{fill:#e3e3e3;}</style><style
       id="style1399-8-1">.cls-1{fill:#e3e3e3;}</style><style
       id="style1399-4-5-1">.cls-1{fill:#e3e3e3;}</style><style
       id="style1399-0-5">.cls-1{fill:#e3e3e3;}</style><style
       id="style1399-9">.cls-1{fill:#e3e3e3;}</style><style
       id="style1399-1">.cls-1{fill:#e3e3e3;}</style><style
       id="style1399-5-5">.cls-1{fill:#e3e3e3;}</style><style
       id="style1399-8-9">.cls-1{fill:#e3e3e3;}</style></defs><sodipodi:namedview
     id="base"
     pagecolor="#ffffff"
     bordercolor="#666666"
     borderopacity="1.0"
     inkscape:pageopacity="0.0"
     inkscape:pageshadow="2"
     inkscape:zoom="22.627417"
     inkscape:cx="26.31763"
     inkscape:cy="11.932427"
     inkscape:document-units="mm"
     inkscape:current-layer="svg8"
     showgrid="true"
     units="px"
     inkscape:window-width="3440"
     inkscape:window-height="1369"
     inkscape:window-x="1912"
     inkscape:window-y="-8"
     inkscape:window-maximized="1"
     inkscape:snap-bbox="true"
     inkscape:bbox-paths="true"
     inkscape:bbox-nodes="true"
     inkscape:snap-bbox-edge-midpoints="true"
     inkscape:snap-bbox-midpoints="true"
     inkscape:snap-nodes="true"
     inkscape:snap-others="true"
     inkscape:snap-object-midpoints="true"
     inkscape:snap-page="true"
     inkscape:showpageshadow="0"
     inkscape:pagecheckerboard="0"
     inkscape:deskcolor="#d1d1d1"><inkscape:grid
       type="xygrid"
       id="grid445" /></sodipodi:namedview><metadata
     id="metadata5"><rdf:RDF><cc:Work
         rdf:about=""><dc:format>image/svg+xml</dc:format><dc:type
           rdf:resource="http://purl.org/dc/dcmitype/StillImage" /></cc:Work></rdf:RDF></metadata><path
     id="path834"
     style="fill:#e3e3e3;stroke-width:0.0625"
     d="M 16 0.001953125 C 15.691695 0.0019528746 15.381714 0.10380462 15.146485 0.30664063 L 10.603516 4.2246094 C 9.8450232 4.8786504 10.387264 5.9968224 11.457031 5.998047 L 13.992188 5.998047 L 13.990235 14.992188 C 13.989168 15.999323 14.528351 16.001922 15.195313 16 L 16.804688 15.998047 C 17.471649 15.999968 18.010831 16.008404 18.009766 14.990235 L 18.007813 6.0000001 L 20.542969 5.998047 C 21.607768 5.9980477 22.157638 4.8826279 21.394532 4.2246094 L 16.851563 0.30664063 C 16.616333 0.10380506 16.308306 0.0019533754 16 0.001953125 z M 12.017578 8.1640626 C 6.2287028 8.7263199 2.0005425 10.478077 2 12.544922 L 1.9960938 27.427735 C 1.9954367 29.945605 8.2669239 32 15.996094 32 C 23.725266 32 29.995433 29.945605 29.996094 27.427735 L 30 12.544922 C 30.000543 10.479006 25.775388 8.7290916 19.990235 8.1660157 L 19.990235 10.308594 C 24.166524 10.885609 27.132813 12.322553 27.132813 14.001953 C 27.132813 16.186824 22.119997 17.96875 15.941406 17.96875 C 9.7628105 17.96875 4.7500001 16.186824 4.7500001 14.001953 C 4.7500001 12.306457 7.7740141 10.85873 12.013672 10.292969 L 12.017578 8.1640626 z "
     transform="scale(0.26458333)" /></svg>
