<?xml version="1.0" encoding="UTF-8" standalone="no"?>
<!-- Created with Inkscape (http://www.inkscape.org/) -->

<svg
   width="32"
   height="32"
   viewBox="0 0 8.4666666 8.4666666"
   version="1.1"
   id="svg8"
   inkscape:version="1.2.2 (732a01da63, 2022-12-09)"
   sodipodi:docname="storage-io-input-output-read-write.svg"
   xml:space="preserve"
   xmlns:inkscape="http://www.inkscape.org/namespaces/inkscape"
   xmlns:sodipodi="http://sodipodi.sourceforge.net/DTD/sodipodi-0.dtd"
   xmlns="http://www.w3.org/2000/svg"
   xmlns:svg="http://www.w3.org/2000/svg"
   xmlns:rdf="http://www.w3.org/1999/02/22-rdf-syntax-ns#"
   xmlns:cc="http://creativecommons.org/ns#"
   xmlns:dc="http://purl.org/dc/elements/1.1/"><defs
     id="defs2"><style
       id="style1399">.cls-1{fill:#e3e3e3;}</style><style
       id="style1399-4">.cls-1{fill:#e3e3e3;}</style><style
       id="style1399-8">.cls-1{fill:#e3e3e3;}</style><style
       id="style1399-4-5">.cls-1{fill:#e3e3e3;}</style><style
       id="style1399-0">.cls-1{fill:#e3e3e3;}</style><style
       id="style854">.cls-1{fill:#e3e3e3;}</style><style
       id="style1399-84">.cls-1{fill:#e3e3e3;}</style><style
       id="style1399-4-8">.cls-1{fill:#e3e3e3;}</style><style
       id="style1399-8-10">.cls-1{fill:#e3e3e3;}</style><style
       id="style1399-4-5-3">.cls-1{fill:#e3e3e3;}</style><style
       id="style1399-0-0">.cls-1{fill:#e3e3e3;}</style><style
       id="style1399-5">.cls-1{fill:#e3e3e3;}</style><style
       id="style1399-4-6">.cls-1{fill:#e3e3e3;}</style><style
       id="style1399-8-1">.cls-1{fill:#e3e3e3;}</style><style
       id="style1399-4-5-1">.cls-1{fill:#e3e3e3;}</style><style
       id="style1399-0-5">.cls-1{fill:#e3e3e3;}</style><style
       id="style1399-9">.cls-1{fill:#e3e3e3;}</style><style
       id="style1399-1">.cls-1{fill:#e3e3e3;}</style><style
       id="style1399-5-5">.cls-1{fill:#e3e3e3;}</style><style
       id="style1399-8-9">.cls-1{fill:#e3e3e3;}</style></defs><sodipodi:namedview
     id="base"
     pagecolor="#ffffff"
     bordercolor="#666666"
     borderopacity="1.0"
     inkscape:pageopacity="0.0"
     inkscape:pageshadow="2"
     inkscape:zoom="32"
     inkscape:cx="16.546875"
     inkscape:cy="15.71875"
     inkscape:document-units="mm"
     inkscape:current-layer="svg8"
     showgrid="true"
     units="px"
     inkscape:window-width="3440"
     inkscape:window-height="1369"
     inkscape:window-x="1912"
     inkscape:window-y="-8"
     inkscape:window-maximized="1"
     inkscape:snap-bbox="true"
     inkscape:bbox-paths="true"
     inkscape:bbox-nodes="true"
     inkscape:snap-bbox-edge-midpoints="true"
     inkscape:snap-bbox-midpoints="true"
     inkscape:snap-nodes="true"
     inkscape:snap-others="true"
     inkscape:snap-object-midpoints="true"
     inkscape:snap-page="true"
     inkscape:showpageshadow="0"
     inkscape:pagecheckerboard="0"
     inkscape:deskcolor="#d1d1d1"><inkscape:grid
       type="xygrid"
       id="grid445" /></sodipodi:namedview><metadata
     id="metadata5"><rdf:RDF><cc:Work
         rdf:about=""><dc:format>image/svg+xml</dc:format><dc:type
           rdf:resource="http://purl.org/dc/dcmitype/StillImage" /></cc:Work></rdf:RDF></metadata><path
     id="path834"
     style="fill:#e3e3e3;stroke-width:0.0625"
     d="M 12.017578 8.1640626 C 6.2287028 8.7263199 2.0005425 10.478077 2 12.544922 L 1.9960938 27.427735 C 1.9954367 29.945605 8.2669239 32 15.996094 32 C 23.725266 32 29.995433 29.945605 29.996094 27.427735 L 30 12.544922 C 30.000543 10.479006 25.775388 8.7290916 19.990235 8.1660157 L 19.990235 10.308594 C 24.166524 10.885609 27.132813 12.322553 27.132813 14.001953 C 27.132813 15.936794 23.198445 17.553266 18.007813 17.898438 L 18.007813 19.998047 L 20.542969 20 C 21.607768 19.999999 22.157638 21.115419 21.394532 21.773438 L 16.851563 25.691407 C 16.381104 26.097078 15.616943 26.097079 15.146485 25.691407 L 10.603516 21.773438 C 9.8450232 21.119397 10.387264 20.001225 11.457031 20 L 13.992188 20 L 13.992188 17.904297 C 8.7440937 17.575736 4.7500001 15.951217 4.7500001 14.001953 C 4.7500001 12.306457 7.7740141 10.85873 12.013672 10.292969 L 12.017578 8.1640626 z "
     transform="scale(0.26458333)" /><path
     id="path510"
     d="M 4.0077503,0.08099836 2.805708,1.1175078 C 2.6050233,1.2905563 2.748048,1.5868522 3.0310909,1.5871762 l 0.6710777,-1e-7 -8.414e-4,2.3795153 C 3.7010449,4.233163 3.8441487,4.2338409 4.0206158,4.2333325 L 4.446026,4.2327093 c 0.1764671,5.083e-4 0.3195743,0.00275 0.3192924,-0.266641 l -6.55e-4,-2.3785682 0.6705143,-3.24e-4 c 0.2817283,2e-7 0.4272884,-0.2955674 0.2253829,-0.4696683 L 4.458516,0.08099851 C 4.3340404,-0.02633542 4.1322259,-0.0263358 4.0077503,0.08099836 Z"
     inkscape:connector-curvature="0"
     style="fill:#e3e3e3;fill-opacity:1;stroke-width:0.0220341"
     sodipodi:nodetypes="ssccccccccsss" /></svg>
