<?xml version="1.0" encoding="UTF-8" standalone="no"?>
<!-- Created with Inkscape (http://www.inkscape.org/) -->

<svg
   width="32"
   height="32"
   viewBox="0 0 8.4666666 8.4666666"
   version="1.1"
   id="svg8"
   inkscape:version="1.3.2 (1:1.3.2+202311252150+091e20ef0f)"
   sodipodi:docname="users_bl.svg"
   xmlns:inkscape="http://www.inkscape.org/namespaces/inkscape"
   xmlns:sodipodi="http://sodipodi.sourceforge.net/DTD/sodipodi-0.dtd"
   xmlns="http://www.w3.org/2000/svg"
   xmlns:svg="http://www.w3.org/2000/svg"
   xmlns:rdf="http://www.w3.org/1999/02/22-rdf-syntax-ns#"
   xmlns:cc="http://creativecommons.org/ns#"
   xmlns:dc="http://purl.org/dc/elements/1.1/">
  <defs
     id="defs2" />
  <sodipodi:namedview
     id="base"
     pagecolor="#ffffff"
     bordercolor="#666666"
     borderopacity="1.0"
     inkscape:pageopacity="0.0"
     inkscape:pageshadow="2"
     inkscape:zoom="11.313708"
     inkscape:cx="12.374369"
     inkscape:cy="16.882175"
     inkscape:document-units="mm"
     inkscape:current-layer="svg8"
     showgrid="false"
     units="px"
     inkscape:window-width="3392"
     inkscape:window-height="1371"
     inkscape:window-x="1968"
     inkscape:window-y="32"
     inkscape:window-maximized="1"
     inkscape:snap-bbox="true"
     inkscape:bbox-paths="true"
     inkscape:snap-bbox-edge-midpoints="true"
     inkscape:bbox-nodes="true"
     inkscape:snap-bbox-midpoints="true"
     inkscape:snap-nodes="false"
     inkscape:showpageshadow="0"
     inkscape:pagecheckerboard="0"
     inkscape:deskcolor="#d1d1d1" />
  <metadata
     id="metadata5">
    <rdf:RDF>
      <cc:Work
         rdf:about="">
        <dc:format>image/svg+xml</dc:format>
        <dc:type
           rdf:resource="http://purl.org/dc/dcmitype/StillImage" />
        <dc:title />
      </cc:Work>
    </rdf:RDF>
  </metadata>
  <path
     id="path819"
     d="m 1.2700001,3.63915 c 0.4669897,0 0.8466667,-0.37968 0.8466667,-0.84667 0,-0.46699 -0.379677,-0.84666 -0.8466667,-0.84666 -0.46698928,0 -0.8466675,0.37967 -0.8466675,0.84666 0,0.46699 0.37967822,0.84667 0.8466675,0.84667 z m 5.9266669,0 c 0.4669893,0 0.8466667,-0.37968 0.8466667,-0.84667 0,-0.46699 -0.3796774,-0.84666 -0.8466667,-0.84666 -0.4669897,0 -0.8466667,0.37967 -0.8466667,0.84666 0,0.46699 0.379677,0.84667 0.8466667,0.84667 z M 7.6200004,4.06248 H 6.7733336 c -0.2328333,0 -0.4431773,0.0939 -0.5966355,0.24607 0.5331357,0.29236 0.9114896,0.8202 0.9935108,1.44727 h 0.8731248 c 0.234156,0 0.423333,-0.18918 0.423333,-0.42334 V 4.90915 c 0,-0.46699 -0.3796771,-0.84667 -0.8466663,-0.84667 z m -3.3866669,0 c 0.8188852,0 1.4816668,-0.66278 1.4816668,-1.48166 0,-0.81889 -0.6627816,-1.48167 -1.4816668,-1.48167 -0.8188855,0 -1.4816667,0.66278 -1.4816667,1.48167 0,0.81888 0.6627812,1.48166 1.4816667,1.48166 z M 5.2493337,4.48582 H 5.1395313 c -0.2751665,0.13229 -0.58076,0.21166 -0.9061978,0.21166 -0.3254373,0 -0.6297081,-0.0794 -0.9061977,-0.21166 h -0.109802 c -0.8413752,0 -1.5240003,0.68262 -1.5240003,1.524 v 0.38099 c 0,0.35058 0.2844272,0.63501 0.635,0.63501 h 3.8100001 c 0.3505728,0 0.635,-0.28443 0.635,-0.63501 V 6.00982 c 0,-0.84138 -0.6826247,-1.524 -1.5239999,-1.524 z M 2.2899686,4.30855 C 2.1365108,4.15641 1.9261668,4.06248 1.6933335,4.06248 H 0.84666517 C 0.37967826,4.06248 0,4.44216 0,4.90915 V 5.33248 C 0,5.56664 0.18917541,5.75582 0.4233326,5.75582 H 1.2951355 C 1.3784795,5.12875 1.7568337,4.60091 2.2899686,4.30855 Z"
     inkscape:connector-curvature="0"
     style="fill:#e3e3e3;stroke-width:0.0132292;fill-opacity:1" />
</svg>
