<?xml version="1.0" encoding="UTF-8" standalone="no"?>
<!-- Created with Inkscape (http://www.inkscape.org/) -->

<svg
   width="32"
   height="32"
   viewBox="0 0 8.4666666 8.4666666"
   version="1.1"
   id="svg8"
   inkscape:version="1.2.2 (732a01da63, 2022-12-09)"
   sodipodi:docname="users90.svg"
   xmlns:inkscape="http://www.inkscape.org/namespaces/inkscape"
   xmlns:sodipodi="http://sodipodi.sourceforge.net/DTD/sodipodi-0.dtd"
   xmlns="http://www.w3.org/2000/svg"
   xmlns:svg="http://www.w3.org/2000/svg"
   xmlns:rdf="http://www.w3.org/1999/02/22-rdf-syntax-ns#"
   xmlns:cc="http://creativecommons.org/ns#"
   xmlns:dc="http://purl.org/dc/elements/1.1/">
  <defs
     id="defs2" />
  <sodipodi:namedview
     id="base"
     pagecolor="#ffffff"
     bordercolor="#666666"
     borderopacity="1.0"
     inkscape:pageopacity="0.0"
     inkscape:pageshadow="2"
     inkscape:zoom="11.313708"
     inkscape:cx="12.330175"
     inkscape:cy="16.882175"
     inkscape:document-units="mm"
     inkscape:current-layer="svg8"
     showgrid="false"
     units="px"
     inkscape:window-width="3440"
     inkscape:window-height="1369"
     inkscape:window-x="1912"
     inkscape:window-y="-8"
     inkscape:window-maximized="1"
     inkscape:snap-bbox="true"
     inkscape:bbox-paths="true"
     inkscape:snap-bbox-edge-midpoints="true"
     inkscape:bbox-nodes="true"
     inkscape:snap-bbox-midpoints="true"
     inkscape:snap-nodes="false"
     inkscape:showpageshadow="0"
     inkscape:pagecheckerboard="0"
     inkscape:deskcolor="#d1d1d1" />
  <metadata
     id="metadata5">
    <rdf:RDF>
      <cc:Work
         rdf:about="">
        <dc:format>image/svg+xml</dc:format>
        <dc:type
           rdf:resource="http://purl.org/dc/dcmitype/StillImage" />
      </cc:Work>
    </rdf:RDF>
  </metadata>
  <path
     id="path819"
     d="m 4.6566683,1.2700002 c 0,0.4669897 0.37968,0.8466667 0.84667,0.8466667 0.46699,0 0.84666,-0.379677 0.84666,-0.8466667 0,-0.46698937 -0.37967,-0.84666759 -0.84666,-0.84666759 -0.46699,0 -0.84667,0.37967822 -0.84667,0.84666759 z m 0,5.9266668 c 0,0.4669893 0.37968,0.8466667 0.84667,0.8466667 0.46699,0 0.84666,-0.3796774 0.84666,-0.8466667 0,-0.4669896 -0.37967,-0.8466667 -0.84666,-0.8466667 -0.46699,0 -0.84667,0.3796771 -0.84667,0.8466667 z m -0.42333,0.4233335 V 6.7733337 c 0,-0.2328334 -0.0939,-0.4431773 -0.24607,-0.5966355 -0.29236,0.5331356 -0.8202,0.9114896 -1.44727,0.9935108 v 0.8731247 c 0,0.2341561 0.18918,0.423333 0.42334,0.423333 h 0.42333 c 0.46699,0 0.84667,-0.3796771 0.84667,-0.8466662 z m 0,-3.3866669 c 0,0.8188852 0.66278,1.4816668 1.48166,1.4816668 0.81889,0 1.48167,-0.6627816 1.48167,-1.4816668 0,-0.8188855 -0.66278,-1.4816667 -1.48167,-1.4816667 -0.81888,0 -1.48166,0.6627812 -1.48166,1.4816667 z m -0.42334,1.0160002 V 5.1395313 c -0.13229,-0.2751664 -0.21166,-0.58076 -0.21166,-0.9061977 0,-0.3254373 0.0794,-0.6297081 0.21166,-0.9061977 v -0.109802 c 0,-0.8413752 -0.68262,-1.5240003 -1.524,-1.5240003 h -0.38099 c -0.35058,0 -0.63501,0.2844272 -0.63501,0.6349999 v 3.8100001 c 0,0.3505728 0.28443,0.635 0.63501,0.635 h 0.38099 c 0.84138,0 1.524,-0.6826247 1.524,-1.5239998 z m 0.17727,-2.9593651 c 0.15214,-0.1534578 0.24607,-0.3638018 0.24607,-0.5966351 V 0.84666518 C 4.2333383,0.37967827 3.8536583,0 3.3866683,0 h -0.42333 c -0.23416,0 -0.42334,0.18917542 -0.42334,0.42333261 V 1.2951356 c 0.62707,0.083344 1.15491,0.4616982 1.44727,0.9948331 z"
     inkscape:connector-curvature="0"
     style="fill:#e3e3e3;stroke-width:0.0132292;fill-opacity:1" />
</svg>
