<?xml version="1.0" encoding="UTF-8" standalone="no"?>
<!-- Created with Inkscape (http://www.inkscape.org/) -->

<svg
   width="32"
   height="32"
   viewBox="0 0 8.4666666 8.4666666"
   version="1.1"
   id="svg8"
   inkscape:version="1.3.2 (1:1.3.2+202311252150+091e20ef0f)"
   sodipodi:docname="wait.svg"
   xmlns:inkscape="http://www.inkscape.org/namespaces/inkscape"
   xmlns:sodipodi="http://sodipodi.sourceforge.net/DTD/sodipodi-0.dtd"
   xmlns="http://www.w3.org/2000/svg"
   xmlns:svg="http://www.w3.org/2000/svg"
   xmlns:rdf="http://www.w3.org/1999/02/22-rdf-syntax-ns#"
   xmlns:cc="http://creativecommons.org/ns#"
   xmlns:dc="http://purl.org/dc/elements/1.1/">
  <defs
     id="defs2" />
  <sodipodi:namedview
     id="base"
     pagecolor="#ffffff"
     bordercolor="#666666"
     borderopacity="1.0"
     inkscape:pageopacity="0.0"
     inkscape:pageshadow="2"
     inkscape:zoom="8"
     inkscape:cx="11.125"
     inkscape:cy="14.125"
     inkscape:document-units="mm"
     inkscape:current-layer="svg8"
     showgrid="false"
     units="px"
     inkscape:window-width="1920"
     inkscape:window-height="1043"
     inkscape:window-x="0"
     inkscape:window-y="360"
     inkscape:window-maximized="1"
     inkscape:pagecheckerboard="0"
     inkscape:showpageshadow="2"
     inkscape:deskcolor="#d1d1d1" />
  <metadata
     id="metadata5">
    <rdf:RDF>
      <cc:Work
         rdf:about="">
        <dc:format>image/svg+xml</dc:format>
        <dc:type
           rdf:resource="http://purl.org/dc/dcmitype/StillImage" />
      </cc:Work>
    </rdf:RDF>
  </metadata>
  <path
     id="path1009"
     d="M 6.4309471,4.1470879 C 6.4125314,3.5868146 6.1855504,3.0628068 5.7868421,2.6648044 5.0693889,1.9484374 3.9588322,1.8211676 3.1060813,2.332151 3.0440093,2.369344 2.9647282,2.36018 2.9135548,2.309006 L 2.3831886,1.7786404 C 2.3137912,1.7092429 2.3240744,1.5935214 2.4051164,1.5381541 3.6688316,0.67495996 5.4070448,0.80413021 6.5286874,1.9257729 7.1436947,2.5407801 7.4602938,3.3411868 7.4785732,4.1470886 l 0.6611233,-5.6e-6 c 0.2798671,2e-7 0.4200325,0.3383608 0.2221196,0.5362737 L 7.1210347,5.924138 C 6.9983533,6.0468194 6.799458,6.0468145 6.6767769,5.9241334 L 5.435998,4.6833544 C 5.2380975,4.485454 5.3782492,4.1470871 5.6581325,4.1470708 Z M 1.7898884,2.5181217 3.0306673,3.7589005 c 0.1979004,0.1979004 0.057743,0.5362727 -0.2221291,0.5362781 l -0.7728309,-7e-7 c 0.018405,0.5602842 0.245419,1.0843143 0.6441421,1.4823205 0.7170828,0.7159969 1.8275745,0.8438314 2.6807183,0.332622 0.062072,-0.037194 0.1413471,-0.028024 0.1925211,0.02315 l 0.5303753,0.5303752 c 0.069397,0.069397 0.059114,0.185119 -0.021928,0.2404862 C 4.7978336,7.7672949 3.059615,7.6381301 1.9379726,6.5164875 1.3229651,5.9014801 1.0063662,5.1010735 0.98808685,4.2951719 h -0.661118 c -0.2798724,5.4e-6 -0.420027,-0.3383661 -0.2221196,-0.5362736 L 1.345625,2.5181224 c 0.1226815,-0.1226814 0.3215821,-0.122682 0.4442634,-7e-7 z"
     inkscape:connector-curvature="0"
     style="fill:#e3e3e3;fill-opacity:1;stroke-width:0.0130892" />
</svg>
